<svg width="25" height="24" viewBox="0 0 25 24" fill="none" xmlns="http://www.w3.org/2000/svg">
<path d="M6.5 2.75C6.5 2.33579 6.83579 2 7.25 2H17.75C18.1642 2 18.5 2.33579 18.5 2.75C18.5 3.16421 18.1642 3.5 17.75 3.5H7.25C6.83579 3.5 6.5 3.16421 6.5 2.75Z" fill="#7785DB"/>
<path d="M9.75 18C9.33579 18 9 17.6642 9 17.25L9 9.75C9 9.33579 9.33579 9 9.75 9C10.1642 9 10.5 9.33579 10.5 9.75L10.5 17.25C10.5 17.6642 10.1642 18 9.75 18Z" fill="#7785DB"/>
<path d="M15.25 18C14.8358 18 14.5 17.6642 14.5 17.25L14.5 9.75C14.5 9.33579 14.8358 9 15.25 9C15.6642 9 16 9.33579 16 9.75L16 17.25C16 17.6642 15.6642 18 15.25 18Z" fill="#7785DB"/>
<path fill-rule="evenodd" clip-rule="evenodd" d="M6.78439 6.75C6.02841 6.75 5.44544 7.41585 5.54536 8.1652L7.01202 19.1652C7.09482 19.7862 7.62455 20.25 8.25106 20.25H16.749C17.3755 20.25 17.9052 19.7862 17.988 19.1652L19.4547 8.1652C19.5546 7.41585 18.9716 6.75 18.2157 6.75H6.78439ZM4.05851 8.36345C3.8387 6.71487 5.12122 5.25 6.78439 5.25H18.2157C19.8788 5.25 21.1613 6.71487 20.9415 8.36345L19.4749 19.3635C19.2927 20.7297 18.1273 21.75 16.749 21.75H8.25106C6.87275 21.75 5.70734 20.7297 5.52518 19.3635L4.05851 8.36345Z" fill="#7785DB"/>
</svg>
